<?xml version="1.0" encoding="utf-8"?>
<!-- Generator: Adobe Illustrator 17.0.0, SVG Export Plug-In . SVG Version: 6.00 Build 0)  -->
<!DOCTYPE svg PUBLIC "-//W3C//DTD SVG 1.0//EN" "http://www.w3.org/TR/2001/REC-SVG-20010904/DTD/svg10.dtd">
<svg version="1.0" id="_x3C_Layer_x3E_" xmlns="http://www.w3.org/2000/svg" xmlns:xlink="http://www.w3.org/1999/xlink" x="0px"
	 y="0px" width="2760px" height="1840px" viewBox="0 0 2760 1840" enable-background="new 0 0 2760 1840" xml:space="preserve">
<g>
	<path fill="#FCECDB" d="M541.729,1704.209c0,0-677.701-505.034-277.611-1015.435C572.81,294.972,1083.84,585.641,1202.806,542.38
		c118.965-43.261,375.15-541.091,882.131-384.255c627.655,194.167,375.595,1068.142,159.22,1544.844L541.729,1704.209z"/>
	<path fill="#F9DDBE" d="M694.744,1704.209c0,0-567.833-423.158-232.605-850.813c258.647-329.96,686.83-86.414,786.509-122.661
		c99.679-36.248,314.332-453.37,739.121-321.96c525.901,162.689,314.704,894.976,133.406,1294.396L694.744,1704.209z"/>
	<path fill="#82B378" d="M518.388,1696.49c-6.215-9.763-24.916-35.1-49.827-31.746c-27.14,3.653,29.977,21.548,47.463,31.819
		c-3.884,0.054-7.224-0.257-9.675-1.131c-11.69-4.167-31.711,3.824-38.111,6.629h111.292c-0.771-2.663-2.774-7.01-7.958-10.178
		c-1.827-1.117-5.501-1.273-10.243-0.912c6.618-7.801,11.214-32.722-7.209-26.309c-13.457,4.685-13.422,19.911-12.1,28.919
		c-2.863,0.449-5.767,0.902-8.635,1.314c-5.542-28.239-25.14-111.002-64.863-113.21c-40.269-2.237,34.148,85.834,58.928,114.001
		C524.274,1696.069,521.218,1696.357,518.388,1696.49z"/>
	<path fill="#2E3552" d="M2618.821,1712.329H237.199c-1.895,0-3.445-1.551-3.445-3.445v-3.377c0-1.896,1.55-3.445,3.445-3.445
		h2381.623c1.894,0,3.444,1.55,3.444,3.445v3.377C2622.266,1710.778,2620.715,1712.329,2618.821,1712.329z"/>
	<g>
		<path fill="#2C3A64" d="M877.735,418.267c-0.569-3.119-7.9-36.557-59.625-30.852c0,0,25.747-0.656,31.736,9.836
			c0,0-19.229-11.247-32.622-4.788c-13.393,6.458-18.066,32.243-16.976,40.342c1.093,8.099,12.673,33.038,21.901,33.962
			c3.496,0.35,7.349-0.439,10.789-1.552c-1.833,4.043-3.563,8.463-5.121,13.344c-14.418,45.138,12.742,83.265,29.467,76.188
			c10.727-4.537,16.643,14.032,16.643,14.032l95.606-103.427C969.533,465.353,917.792,388.793,877.735,418.267z"/>
		<path fill="#2B478B" d="M1002.283,1663.942l-23.252,8.658c0,0-100.994-140.073-113.428-263.314
			c-2.222-22.002-1.481-43.319,3.321-63.005c0,0-0.987-5.639-2.714-15.604c-0.798-4.651-1.785-10.251-2.906-16.668
			c-3.282-18.813-7.802-44.555-12.965-73.865c-11.884-67.447-27.279-153.67-39.238-217.056l6.265-2.012l67.789-21.87l14.01-44.497
			l50.478-13.287c0,0,11.275,22.059,21.356,126.258c1.859,13.668,3.549,28.741,4.821,45.086
			c3.93,49.888,4.214,111.774-4.803,182.525c-2.316,18.11-5.239,36.809-8.865,56.021c-2.658,14.085-3.056,33.277-1.936,55.317
			C965.304,1507.374,1002.283,1663.942,1002.283,1663.942z"/>
		<path fill="#233862" d="M975.82,1112.766l-109.609,217.911c-0.798-4.651-1.785-10.251-2.906-16.668
			c-3.282-18.813-7.802-44.555-12.965-73.865c-11.884-67.447-27.279-153.67-39.238-217.056l6.265-2.012l67.789-21.87l14.01-44.497
			l50.478-13.287c0,0,11.275,22.059,21.356,126.258C972.858,1081.348,974.548,1096.421,975.82,1112.766z"/>
		<path fill="#2B478B" d="M927.602,969.388c0,0-0.04,0.18-0.119,0.519c-0.35,1.438-1.417,5.848-2.954,12.155
			c-7.285,29.988-25.088,102.787-26.166,102.728c-9.769,68.269-24.47,156.725-42.722,224.714
			c-9.66,35.956-20.298,66.193-31.764,84.695c-3.933,6.356-8.224,16.984-12.695,30.506
			c-26.374,79.735-58.827,260.222-58.827,260.222l-14.8,5.968c0,0-57.031-162.185-7.614-293.872
			c5.04-13.411,11.178-26.505,18.592-39.089c0.848-1.456,1.427-3.043,1.227-4.71c0-0.02,0-0.03-0.009-0.06
			c-0.65-5.479-2.246-19.221-4.064-38.521c-5.038-53.26-9.859-233.236-12.493-275.589c-0.997-16.027-0.409-30.337,1.227-43.001
			c3.165-24.72,10.289-43.221,17.245-56.164c8.781-16.326,17.304-23.811,17.304-23.811s113.585,42.842,156.098,31.545
			L927.602,969.388z"/>
		<path fill="#223E77" d="M927.473,980.144c-0.908,0.66-1.887,1.298-2.943,1.917c-39.17,22.893-176.585,14.85-190.107,13.991
			c3.165-24.72,10.289-43.221,17.245-56.164c58.778,5.219,156.197,15.797,175.816,30.018
			C931.943,973.14,932.393,976.563,927.473,980.144z"/>
		<path fill="#ED985F" d="M1146.697,933.717l-6.895,20.394c0,0-1.386-0.25-3.779-0.861c-7.524-1.893-25.867-6.271-46.414-12.3
			c-30.957-8.797-67.364-21.082-80.603-32.943c-20.19-17.941-49.775-67.081-66.371-113.881c-0.506-1.162-0.839-2.293-1.171-3.427
			c-8.584-24.793-13.389-48.725-10.866-66.685c1.446-11.003,4.344-20.138,8.063-27.869c4.879-10.206,11.258-17.817,17.434-23.32
			c0.881-0.915,1.761-1.829,2.956-2.508c10.091-8.372,17.868-13.757,17.868-13.757c4.469-0.985,9.707,4.604,13.477,10.467
			c0,0,6.124,11.652,8.734,19.992c0.142,0.203,0.284,0.408,0.253,0.582c0.584,1.714,1.139,3.601,1.835,5.693
			c0.283,0.408,0.363,0.96,0.474,1.338c1.187,4.326,2.343,8.825,3.468,13.498c12.936,50.248,22.949,124.648,38.049,149.004
			c6.516,10.472,40.564,34.847,67.805,53.346C1130.628,923.669,1146.697,933.717,1146.697,933.717z"/>
		<path fill="#FFB27D" d="M964.507,705.294c-12.318,8.042-27.663,14.527-46.804,18.38c-71.753,14.461-97.376-46.561-106.47-88.209
			c9.878-5.289,19.06-6.258,24.362-6.739c5.169-0.463,10.6-0.713,15.094-0.81c8.178-5.906,20.813-30.662,24.549-69.55l3.327,0.994
			l55.751,16.96c0,0-3.077,17.788-4.814,34.633c-1.348,13.182-1.857,25.801,0.558,28.961c4.358,1.074,6.971,1.769,6.971,1.769
			s0.003,0.018,0.027,0.054C937.778,642.995,953.322,670.26,964.507,705.294z"/>
		<path fill="#2B478B" d="M989.486,750.123c-0.336,1.526-0.732,3.023-1.18,4.565c-12.591,42.109-22.781,210.456-22.781,210.456
			c9.093,28.682-221.655,26.282-226.12-0.386c-12.065-27.214,17.467-78.036,34.532-103.857c2.138-3.246,3.981-6.659,5.502-10.198
			c3.851-8.884,5.709-18.553,5.328-28.319c-1.503-38.505-8.184-73.825-10.983-95.485c0.001-0.001,0.001-0.002,0.001-0.002
			c3.555-3.528,7.011-6.812,10.222-9.925c4.905-4.797,9.209-9.239,12.229-13.553c3.326-4.703,5.175-9.287,4.763-14.099
			c-0.316-3.638-0.967-7.322-1.879-10.97c-0.423-1.722-0.901-3.437-1.418-5.145c-5.482-17.946-15.563-33.478-15.563-33.478
			c18.267-10.669,53.457-11.001,53.457-11.001s0.239,1.922,0.676,5.062c1.718,12.622,6.527,44.976,11.456,50.514
			c6.161,6.895,103.461,26.897,106.843,15.837c3.331-10.88-16.762-56.668-17.512-58.4c-0.024-0.035-0.027-0.054-0.027-0.054
			c32.725,7.661,45.271,16.257,45.271,16.257C965.403,672.746,998.359,709.76,989.486,750.123z"/>
		<path fill="#ED985F" d="M934.319,576.331c0,0-3.087,17.771-4.813,34.632c-31.74-4.085-45.659-34.806-50.941-51.591
			L934.319,576.331z"/>
		<path fill="#FFB27D" d="M943.351,593.364c0,0-75.435-6.298-70.79-53.216c4.646-46.917-1.962-79.327,46.398-77.29
			c48.36,2.038,55.931,20.866,58.188,36.903C979.405,515.799,963.093,593.793,943.351,593.364z"/>
		<path fill="#2C3A64" d="M977.519,473.453c-10.229-15.275-19.336-13.06-24.689-9.311c-38.898-26.752-68.773,4.052-68.773,4.052
			c-8.407,33.155-34.611,50.008-34.611,50.008s12.879,9.853,45.337,4.884c9.915-1.518,19.234-7.523,27.404-15.122
			c-14.955,20.185-33.936,33.906-33.936,33.906c39.55-13.688,59.992-64.742,62.061-70.15c4.185,4.59,12.349,14.465,14.232,23.532
			c2.559,12.322,1.784,37.083,9.036,36.965C973.579,532.216,992.859,496.363,977.519,473.453z"/>
		<path fill="#233862" d="M896.8,919.049c-44.574,5.989-88.968-34.756-117.36-68.347c3.851-8.884,5.709-18.553,5.328-28.319
			c-1.503-38.505-8.184-73.825-10.983-95.485c0.001-0.001,0.001-0.002,0.001-0.002c3.555-3.528,7.011-6.812,10.222-9.925
			c4.905-4.797,9.209-9.239,12.229-13.553C841.622,759.729,957.234,910.93,896.8,919.049z"/>
		<g>
			<path fill="#ED985F" d="M1052.314,934.32l7.885,26.761c0,0-19.9-4.527-32.374-5.745c-3.743-0.379-5.888-0.717-5.888-0.717
				c-9.989-1.078-21.965-2.685-34.998-4.381l-0.18,0.009c-22.373-3.353-47.461-7.534-68.757-12.754
				c-14.989-3.812-28.083-8.152-37.144-12.843c-0.928-0.449-1.666-0.918-2.604-1.547c-21.805-13.113-49.977-54.826-72.989-100.162
				c-3.192-6.258-6.217-12.534-9.211-18.632c-10.808-22.732-19.828-45.267-25.767-64.886c-3.672-11.686-6.366-22.403-7.494-31.314
				c-0.449-3.145-0.878-6.108-0.947-8.933c-0.131-1.615-0.231-3.203-0.301-4.74c8.813-7.714,29.141-22.123,56.862-20.626
				c0.58,0.987,1.148,1.985,1.727,3.003c11.956,21.745,25.009,50.106,37.354,78.357c6.826,15.479,13.462,30.977,19.998,45.247
				c3.763,8.682,7.475,16.835,10.948,24.309c6.716,14.25,12.653,25.746,17.692,32.901c3.233,4.671,11.886,10.808,23.252,17.594
				c19.749,11.886,48.34,25.826,73.158,37.093c10.31,4.761,20.039,9.042,28.122,12.575
				C1043.702,930.648,1052.314,934.32,1052.314,934.32z"/>
			<path fill="#2B478B" d="M821.138,677.12c-34.556-6.374-59.363,22.008-59.363,22.008c-3.981-50.792,20.681-59.935,20.681-59.935
				C792.253,634.102,806.623,650.911,821.138,677.12z"/>
		</g>
		<path fill="#233862" d="M823.598,1702.979H706.486c0,0-2.807-17.849,3.311-31.39c5.861-12.994,15.042-18.899,12.844-34.62
			c7.441,7.661,19.57,16.241,36.501,13.964c2.074,3.364,13.391,21.362,20.32,26.342
			C787.115,1682.773,821.241,1680.814,823.598,1702.979z"/>
		<path fill="#233862" d="M1075.051,1702.979H957.94c0,0-4.378-18.679,3.311-31.39c6.805-11.246,4.196-17.652-0.844-26.957
			c5.306,2.172,12.169,4.147,19.725,3.715c5.835-0.336,12.006-2.983,17.416-6.126c5.04,5.746,26.623,30.207,33.367,35.054
			C1038.568,1682.773,1072.695,1680.814,1075.051,1702.979z"/>
		<path fill="#FFFFFF" d="M925.36,566.231c0,0,1.056,6.21,16.34,6.225c0,0,12.832,0.014,12.864-6.737
			C954.565,565.719,942.471,560.154,925.36,566.231z"/>
	</g>
	<g>
		<path fill="#FFB27D" d="M1074.018,986.61c0,0-55.363-71.685-82.308-93.932c0,0-36.854-90.874-39.848-96.86
			c-0.142-0.282-0.329-0.516-0.538-0.726c-0.403-2.116-1.648-9.717-0.272-16.695c1.618-8.206-3.59-27.88-7.169-26.1
			c-3.577,1.779-0.644,8.662-5.011,8.551c-4.367-0.111-15.153-22.152-20.273-19.089c-5.12,3.063-7.757,11.565-3.135,28.156
			c3.847,13.811,11.908,26.796,14.502,30.761c-0.15,0.084-0.233,0.131-0.233,0.131s13.536,88.337,27.812,114.522
			c14.275,26.187,58.541,114.07,89.786,117.331C1078.575,1035.922,1074.018,986.61,1074.018,986.61z"/>
		<path fill="#FFB27D" d="M1318.217,762.352c-4.951-1.904-11.045,19.042-14.854,19.804c-3.809,0.762-2.285-5.712-5.689-6.727
			c-3.406-1.015-4.975,17.01-2.309,23.949c2.667,6.941,2.289,15.19,2.289,15.19s-22.656,87.514-27.533,97.306
			c-4.877,9.792-84.742,81.037-84.742,81.037l17.565,56.741c0,0,94.076-86.926,102.095-107.37
			c8.019-20.443,11.648-125.387,11.648-125.387s7.034-15.125,8.559-30.359C1326.77,771.303,1323.167,764.258,1318.217,762.352z"/>
		<path fill="#FFB27D" d="M1181.663,976.35l-37.797,49.45l-34.774-58.61c0,0,7.643-14.402,11.099-37.995
			c1.446-9.921,2.164-21.468,1.242-34.257l48.876,25.026c0,0-1.165,4.519-1.946,11.189c-0.832,7.207-1.203,16.923,0.846,26.153
			C1170.974,965.231,1175.084,970.999,1181.663,976.35z"/>
		<path fill="#D3671E" d="M1241.205,1661.07c0,0,6.254,12.205,20.111,15.224c8.729,1.901,16.202,6.443,20.853,12.813
			c3.93,5.384,0.129,12.955-6.537,12.955h-70.335c-5.99,0-10.664-5.168-10.064-11.128c0.524-5.211,1.071-11.278,1.311-15.932
			c0.52-10.158,10.693-18.335,10.693-18.335L1241.205,1661.07z"/>
		<path fill="#35488B" d="M1242.899,1664.14c0,0-16.875,9.97-45.426,3.952c0,0-48.54-124.123-51.414-182.531
			c-0.13-2.346-0.17-4.582-0.13-6.707c0.978-54.936-49.747-197.99-36.064-227.3c13.682-29.318,124.232,13.173,124.232,13.173
			l2.195,99.684L1242.899,1664.14z"/>
		<path fill="#2C3A64" d="M1236.293,1364.41l-90.233,121.15c-0.13-2.346-0.17-4.582-0.13-6.707
			c0.978-54.936-49.747-197.99-36.064-227.3c13.682-29.318,124.232,13.173,124.232,13.173L1236.293,1364.41z"/>
		<path fill="#D3671E" d="M1059.61,1661.07c0,0,6.255,12.205,20.111,15.224c8.729,1.901,16.201,6.443,20.853,12.813
			c3.931,5.384,0.129,12.955-6.536,12.955h-70.336c-5.99,0-10.663-5.168-10.064-11.128c0.524-5.211,1.072-11.278,1.31-15.932
			c0.52-10.158,10.694-18.335,10.694-18.335L1059.61,1661.07z"/>
		<path fill="#35488B" d="M1169.436,1267.092c0,0-97.701,364.605-100.694,400.286c0,0-19.058,9.775-49.994-7.493
			c0,0-17.962-163.418,0-208.075c17.964-44.657-3.566-179.643,42.126-210.091
			C1106.566,1211.271,1169.436,1267.092,1169.436,1267.092z"/>
		<path fill="#F99F46" d="M1261.32,1005.717c6.318-37.926-17.814-65.234-17.814-65.234l-36.173,25.733
			c-6.986,0.415-9.979,2.959-9.979,2.959c-5.987-1.613-22.702,0-22.702,0c0.265,8.624-3.171,16.494-18.306,18.476
			c-20.136,2.623-38.14-11.115-47.254-20.456c0,0-12.196-1.063-27.499,3.928c0,0-7.407-3.789-15.302-4.022l-29.611-26.617
			c0,0-34.688,10.016-40.16,62.296c0,0,38.944,29.636,41.757,53.05l1.066,8.874l3.774,31.44l6.643,55.143l-19.776,109.832
			c-0.171,0.962-0.265,1.924-0.265,2.867c0,7.342,5.019,13.946,12.398,15.721c0,0,1.698,0.283,4.83,0.717
			c20.967,2.944,106.077,13.097,172.807-5.02c15.003-4.076,24.891-18.4,23.646-33.912l-14.118-177.174
			c0-0.003,1.336-28.329,1.67-33.319C1231.283,1026.009,1261.32,1005.717,1261.32,1005.717z"/>
		<path opacity="0.4" fill="#D86713" d="M1073.953,1197.5c-1.321,38.31-5.076,70.787-27.006,82.922
			c-3.132-0.434-4.83-0.717-4.83-0.717c-7.38-1.774-12.398-8.379-12.398-15.721c0-0.943,0.095-1.905,0.265-2.868l19.776-109.831
			l-6.643-55.143c0.321-0.963,0.49-1.472,0.49-1.472S1075.633,1148.435,1073.953,1197.5z"/>
		<path fill="#EA9C68" d="M1169.208,957.307c-27.793-0.743-49.018-28.112-49.018-28.112l48.172,1.959
			C1167.53,938.36,1167.159,948.076,1169.208,957.307z"/>
		<g>
			<path fill="#FFB27D" d="M1182.688,941.821c0,0-55.438,14.638-74.562-29.447c-20.64-47.576,2.002-82.238,20.828-84.577
				c37.542-4.662,59.349,9.653,65.946,24.784C1201.498,867.713,1213.279,934.019,1182.688,941.821z"/>
			<path fill="#FFFFFF" d="M1160.712,917.003c0,0,2.32,5.719,16.944,2.509c0,0,12.278-2.692,10.886-9.157
				C1188.542,910.354,1175.8,907.582,1160.712,917.003z"/>
			<path fill="#2C3A64" d="M1109.128,792.392c-14.5,4.59-25.278,11.637-32.676,20.241c-0.717-3.304-0.771-6.286-0.771-6.286
				c-1.437,2.85-1.671,6.191-1.478,9.068c-0.082,0.11-0.158,0.225-0.239,0.336c-2.825,0.294-7.037,1.448-9.521,5.493
				c0,0,3.03-2.032,6.948-1.659c-19.552,32.267,0.307,80.44,46.633,108.213c0,0-6.505-19.08-5.726-29.266
				c0,0-14.468-18.448-6.038-23.014c8.43-4.565,12.979,6.349,14.91,4.207c1.932-2.143,4.947-38.391,15.184-37.246
				c10.237,1.145,48.109,12.882,64.713-1.436C1217.67,826.726,1177.391,770.783,1109.128,792.392z"/>
		</g>
	</g>
	<g>
		<g>
			<path fill="#2C3A64" d="M2244.277,1588.724c0,0,23.95,22.197,19.276,37.97c-4.673,15.771-26.286,26.286-29.208,45.563
				c-2.92,19.277-14.604,29.792-25.118,29.792s-50.13,0-50.13,0s-7.738-13.564,10.953-17.654
				c18.693-4.089,25.741-26.741,24.573-47.771c-1.169-21.029,1.752-49.067,1.752-49.067l39.723-9.348L2244.277,1588.724z"/>
			<path fill="#2C3A64" d="M1945.773,1701.231c-0.588,0.301-1.546,0.569-2.823,0.819h-132.905c1.068-4.66,5.22-13.991,21.236-16.586
				c20.937-3.393,57.231-15.558,65.325-42.352c0.259-0.859,0.488-1.737,0.688-2.636c6.427-28.62,53.151,8.772,53.151,8.772
				s0.139,1.138,0.338,3.073C1951.871,1662.813,1954.656,1696.792,1945.773,1701.231z"/>
			<path fill="#F1A34F" d="M1836.84,935.64c0,0,7.098,88.552,15.438,194.996c11.338,144.596,24.973,322.207,26.322,355.854
				c2.33,58.426,11.688,151.885,11.688,151.885s22.187,22.203,66.594,12.846c0,0,39.57-133.415,50.873-274.574
				c0.176-2.313,0.351-4.645,0.525-6.976c10.516-143.702,26.865-446.298,26.865-446.298L1836.84,935.64z"/>
			<path opacity="0.4" fill="#D86713" d="M1836.84,935.64c0,0,7.098,88.552,15.438,194.996l155.478,246.011
				c0.176-2.313,0.351-4.645,0.525-6.976c10.516-143.702,26.865-446.298,26.865-446.298L1836.84,935.64z"/>
			<path fill="#F1A34F" d="M1869.251,946.156c0,0,127.93,320.699,212.048,471.41c84.117,150.711,110.404,192.771,110.404,192.771
				s48.192-19.276,52.574-32.42c0,0-32.167-290.956-88.5-361.883c-31.83-40.077-69.221-160.35-70.974-202.409
				c-1.753-42.059-11.392-125.301-11.392-125.301L1869.251,946.156z"/>
		</g>
		<g>
			<path fill="#FFB27D" d="M1491.101,825.229l-22.68,4.322c0,0-42.48-10.065-58.1,34.758c0,0-5.062,18.985,9.107,17.981
				c14.17-1.005,8.589-2.665,28.598-3.643c20.008-0.979,37.782-11.086,42.475-24.979l11.087-12.293L1491.101,825.229z"/>
			<path fill="#233862" d="M1476.491,843.787c-6.978-15.075-6.148-17.731-6.148-17.731s129.665-93.575,141.443-102.885
				c11.777-9.311,135.955-181.472,135.955-181.472l152.935,21.423c0,0-205.826,203.786-236.132,226.789
				c-50.079,38.015-173.105,71.852-173.105,71.852S1481.972,855.627,1476.491,843.787z"/>
		</g>
		<path fill="#FFB27D" d="M1812.895,441.28c0,0-52.197,91.839-103.217,103.827c0,0,2.125-30.845,14.548-51.952
			c-5.088-6.001-9.554-11.513-13.423-16.445c-12.843-16.457-18.949-26.53-18.949-26.53l17.316-46.551l11.748-31.584
			c5.646,10.25,11.871,18.985,18.358,26.454C1772.715,436.941,1812.895,441.28,1812.895,441.28z"/>
		<path fill="#ED975D" d="M1739.276,398.499c0,0,6.229,46.022-28.474,78.211c-12.843-16.457-18.949-26.53-18.949-26.53
			l17.316-46.551C1727.735,397.972,1739.276,398.499,1739.276,398.499z"/>
		<path fill="#FFB27D" d="M1678.1,456.966c0,0,77.988-30.404,58.307-78.681c-19.682-48.275-22.871-84.712-73.497-67.342
			c-50.625,17.371-52.729,39.712-50.08,57.424C1615.479,386.078,1657.306,463.63,1678.1,456.966z"/>
		<path fill="#2B478B" d="M2080.977,912.565c-31.468,45.233-266.685,105.667-263.896,74.358c1.067-11.982,2.501-33.108-0.031-61.755
			c-0.59-6.708-1.419-13.815-2.502-21.334c-5.976-41.139-20.171-94.035-51.829-155.265c-2.374-4.59-4.844-9.21-7.409-13.893
			c-13.032-23.708-24.138-48.771-32.614-73.274c-16.299-47.099-22.863-92.157-14.643-121.616c0.032-0.144,0.08-0.271,0.128-0.414
			c49.169-22.736,68.221-110.909,68.221-110.909s167.755,30.114,261.715,253.715
			C2038.116,682.177,2108.349,873.195,2080.977,912.565z"/>
		<path fill="#233862" d="M1817.05,925.168c-0.59-6.708-1.419-13.815-2.502-21.334c-5.976-41.139-20.171-94.035-51.829-155.265
			c5.433-32.949,12.938-60.353,21.175-72.685c33.459-50.141,52.944-57.979,52.944-57.979S1887.01,829.491,1817.05,925.168z"/>
		<path fill="#2B478B" d="M1747.602,288.608c0.546-1.079,2.133-2.232,6.006-3.417c0,0-3.629-1.22-7.853-0.292
			c-2.187-5.343-7.509-14.441-17.493-14.512c0,0,5.723,1.49,7.835,7.223c-13.68-8.671-39.036-11.189-102.339,9.895
			c-83.425,27.788-41.744,76.218-29.101,80.101c12.644,3.883,35.921-21.035,56.857-24.438c20.936-3.402,32.261,25.762,40.243,28.181
			c7.982,2.418,3.444-4.217,11.801-10.864c8.356-6.646,13.158,8.989,12.977,19.97c-0.182,10.98,16.115,21.39,16.115,21.39
			s0,0,9.558-17.533c9.558-17.532,6.958-81.18-2.173-92.635C1749.229,290.666,1748.424,289.638,1747.602,288.608z"/>
		<g>
			<path fill="#223D75" d="M1579.258,652.893c0,0,0.021-29.543-17.971-44.586c-6.581-5.502-14.633-10.66-22.199-14.989
				c-8.065-4.616-9.412-1.69-8.261,7.554c0.896,7.191-0.855,16.574,0.452,21.379c4.049,14.88,5.409,25.683,21.242,32.204
				C1568.354,660.977,1579.258,652.893,1579.258,652.893z"/>
			<path fill="#E57970" d="M1483.958,663.37c0,0-15.387,1.66-14.938,5.703c0.447,4.043,42.18-3.147,41.723-5.723
				C1510.286,660.774,1489.43,662.749,1483.958,663.37z"/>
			<path fill="#2B478B" d="M1683.15,795.158c0,0-2.865-32.014-41.724-47.592c-20.209-8.102-89.844-32.991-65.724-60.055
				c12.274-13.782,13.641-28.163,12.015-38.969c-0.229-1.508-0.509-2.954-0.828-4.313c-0.01-0.01-0.01-0.01-0.01-0.01
				c-1.887-8.014-5.061-13.192-5.061-13.192s-0.22-0.522-0.763-1.367c1.367-4.584,1.707-10.272-0.248-17.108
				c-2.357-8.247-10.507-14.743-16.314-21.244c-6.189-6.931-8.395-4.581-10.227,4.553c-1.356,6.755-5.601,14.627-6.256,19.658
				c-4.715-0.226-10.041-0.1-16.089,0.53c-0.02,0-0.039,0-0.06,0.009c-1.955,0.19-3.972,0.449-6.077,0.759
				c-20.657,3.064-22.413,12.784-31.825,12.914c-8.592,0.109-19.559-0.09-21.395-0.13c-0.17,0-0.26,0-0.26,0
				s-12.475-2.685-11.206,8.392c0.139,1.187,0.269,2.315,0.398,3.383c0.928,7.744,1.837,12.334,5,15.178
				c2.405,2.156,11.418,4.289,17.995,4.755c5.12,0.361,17.139,0.582,17.798,0.751c1.806,0.469-6.654,5.153-32.171,5.552
				c-0.46,0.008-0.922,0.031-1.389,0.04c-1.23,0.023-2.235,0.986-2.321,2.213c-0.157,2.229,0.328,5.742,4.06,8.584
				c5.947,4.541,28.7,3.703,25.606,10.1c-0.648,1.357-1.926,2.604-3.572,3.852c-0.01,0-0.01,0-0.01,0
				c-6.098,4.602-17.194,9.032-20.219,18.143c0,0,8.104-3.642,14.041-2.884c0,0-19.09,6.846-19.42,16.615
				c0,0,2.465-2.195,6.985-2.116c0,0-15.277,15.478-13.282,37.723c0.001,0.006,0.002,0.011,0.002,0.019
				c-9.314,12.786-23.516,30.06-34.147,33.034c0,0-9.2-5.38-13.41-5.252c-4.208,0.128-10.589,6.683-10.566,11.717
				c0.021,5.033,24.5,6.37,27.476,5.401c2.977-0.968,66.353-0.951,73.303-5.42c0-0.001,0-0.002,0-0.002L1683.15,795.158z"/>
			
				<rect x="1418.693" y="778.612" transform="matrix(0.9894 -0.145 0.145 0.9894 -114.2752 235.3418)" fill="#D3671E" width="277.482" height="246.097"/>
			
				<rect x="1555.968" y="758.495" transform="matrix(0.9894 -0.145 0.145 0.9894 -109.9101 255.0394)" fill="#F1A34F" width="277.482" height="246.097"/>
			<polygon opacity="0.4" fill="#D86713" points="1539.593,779.912 1814.851,739.576 1826.196,816.994 1575.275,1023.408 			"/>
			<polygon fill="#F1A34F" points="1429.11,981.75 1472.615,975.374 1466.854,962.769 1469.308,952.799 1425.803,959.174 			"/>
			<polygon fill="#C95C12" points="1543.626,807.44 1494.877,878.166 1415.633,889.778 1402.478,800.006 1539.593,779.912 			"/>
			<polygon fill="#F1A34F" points="1402.317,800.029 1349.979,873.141 1487.341,853.013 1539.593,779.912 			"/>
			<polygon fill="#F1A34F" points="1539.593,779.912 1603.306,836.018 1874.225,796.317 1814.143,739.679 			"/>
			<path fill="#1D3972" d="M1472.566,629.602c-1.298,3.852-4.551,10.936-11.067,11.775c-0.13-1.067-0.26-2.196-0.398-3.383
				c-1.269-11.077,11.206-8.392,11.206-8.392S1472.396,629.602,1472.566,629.602z"/>
			<path fill="#223D75" d="M1456.366,792.108c0,0,24.765-19.653,56.475-24.614c31.712-4.961,80.096,4.601,80.096,4.601
				L1456.366,792.108z"/>
			<path fill="#223D75" d="M1641.427,747.566c-72.591-0.208-138.304-56.403-102.878-58.398
				c35.428-1.996,48.331-44.947,48.331-44.947s0,0,0.01,0.01c0.319,1.358,0.599,2.805,0.828,4.313
				c1.626,10.807,0.26,25.186-12.016,38.969C1551.583,714.575,1621.219,739.464,1641.427,747.566z"/>
			<path fill="#223D75" d="M1679.834,759.796c0,0,9.614-34.958-28.019-29.214c0,0,5.488-13.971,24.947-13.971
				c0,0-1.497-3.742-4.989-5.987c0,0,23.701-4.491,33.432,12.972c0,0,2.743-11.199,0-16.202c0,0,25.447,6.746,21.954,32.183
				c0,0,5.019-3.292,6.252-10.26c0,0,7.093,12.371-1.077,22.785L1679.834,759.796z"/>
			<path fill="#223D75" d="M1551.522,618.315c0,0,0.166-2.993,2.661-8.483c2.495-5.489,2.162-14.636,3.327-14.47
				c1.163,0.166,12.142,22.281,5.155,28.937C1562.666,624.299,1556.513,626.464,1551.522,618.315z"/>
			<path fill="#D3671E" d="M1460.601,759.882c-1.995-22.245,13.282-37.723,13.282-37.723c-4.521-0.079-6.985,2.116-6.985,2.116
				c0.33-9.769,19.42-16.615,19.42-16.615c-5.938-0.759-14.041,2.884-14.041,2.884c3.024-9.111,14.121-13.542,20.219-18.143
				c0,0,0,0,0.01,0c0.379-0.139,10.678-3.871,14.111,2.256C1510.108,700.894,1459.992,735.542,1460.601,759.882z"/>
		</g>
		<g>
			<path fill="#FFB27D" d="M1543.626,877.367c0,0-29.277-1.523-35.751,0c-6.475,1.523-27.802,14.853-27.802,16.756
				c0,1.905,1.333,3.238,5.331,2.858c3.999-0.381,16.751-4.19,16.184-2.477c-0.568,1.715-36.87,15.234-36.047,22.852
				c0.822,7.616,23.672,18.28,41.19,16.375c17.519-1.903,48.778-26.731,51.239-28.408
				C1560.431,903.644,1543.626,877.367,1543.626,877.367z"/>
			<path fill="#2B478B" d="M1543.869,892.425c-9.299-15.018-2.594-21.867-2.594-21.867s143.351-112.242,154.589-123.58
				c11.239-11.339,63.287-191.891,63.287-191.891s17.913-73.07,59.864-81.128c36.457-7.002,61.654,11.034,78.14,32.179
				c19.646,25.197,21.574,59.951,5.269,87.428c-36.603,61.675-110.437,184.099-131.997,205.014
				c-47.988,46.55-208.544,111.604-208.544,111.604S1551.174,904.221,1543.869,892.425z"/>
		</g>
		<path fill="#FFFFFF" d="M1654.332,433.846c0,0,3.929,7.093,17.729,1.774c0,0,11.588-4.464,8.383-12.585
			C1680.443,423.035,1666.863,420.571,1654.332,433.846z"/>
	</g>
	<path fill="#82B378" d="M1598.727,1702.062h-142.888c-7.656-6.495,5.299-21.246,18.836-22.236
		c5.879-0.445,13.313,0.786,21.809,2.58c1.966-26.116,13.195-143.521,55.515-138.803c47.583,5.282,0,51.702-13.451,79.187
		c-9.965,20.356-20.477,49.549-25.279,63.326c3.863,0.837,7.862,1.657,11.947,2.409c6.307-19.365,29.773-84.502,59.616-80.708
		c35.038,4.444,20.954,30.561-3.88,46.063c-18.22,11.4-40.593,27.604-51.224,35.432c9.007,1.47,18.408,2.462,27.944,2.239
		C1582.147,1690.968,1594.095,1698.182,1598.727,1702.062z"/>
	<path fill="#ED985F" d="M1052.314,934.32c0,0,38.159,7.408,41.587,11.598c3.428,4.189,15.147,27.039,15.19,32.372
		c0.044,5.331-19.998,6.609-28.758-4.185c-8.759-10.794-18.384-5.999-28.02-19.567
		C1042.678,940.967,1052.314,934.32,1052.314,934.32z"/>
</g>
</svg>
