<?xml version="1.0" standalone="no"?>
<!DOCTYPE svg PUBLIC "-//W3C//DTD SVG 20010904//EN"
 "http://www.w3.org/TR/2001/REC-SVG-20010904/DTD/svg10.dtd">
<svg version="1.0" xmlns="http://www.w3.org/2000/svg"
 width="50.000000pt" height="50.000000pt" viewBox="0 0 50.000000 50.000000"
 preserveAspectRatio="xMidYMid meet">
<metadata>
Created by potrace 1.16, written by Peter Selinger 2001-2019
</metadata>
<g transform="translate(0.000000,50.000000) scale(0.100000,-0.100000)"
fill="#000000" stroke="none">
<path d="M12 348 c-8 -8 -12 -45 -12 -100 0 -81 2 -88 20 -88 16 0 20 8 23 63
2 34 4 5 5 -65 l2 -128 25 0 c23 0 24 3 28 77 l3 78 2 -77 c2 -76 3 -78 27
-78 l25 0 0 125 0 125 41 -45 c23 -25 48 -45 56 -45 28 0 26 31 -4 63 -16 18
-42 49 -57 70 -27 37 -27 37 -100 37 -43 0 -77 -5 -84 -12z"/>
<path d="M374 245 c-4 -9 -19 -15 -40 -15 -31 0 -34 -3 -34 -30 0 -20 5 -30
15 -30 11 0 15 -13 15 -54 0 -70 7 -86 36 -86 19 0 24 5 24 25 0 32 16 32 24
0 5 -18 13 -25 31 -25 23 0 25 4 25 49 0 34 4 51 15 55 20 7 19 45 -1 53 -8 3
-20 1 -27 -6 -6 -6 -21 -11 -34 -11 -21 0 -23 5 -23 45 0 44 -15 60 -26 30z"/>
</g>
</svg>
