<?xml version="1.0" encoding="iso-8859-1"?>
<!-- Generator: Adobe Illustrator 19.0.0, SVG Export Plug-In . SVG Version: 6.00 Build 0)  -->
<svg version="1.1" id="Capa_1" xmlns="http://www.w3.org/2000/svg" xmlns:xlink="http://www.w3.org/1999/xlink" x="0px" y="0px"
	 viewBox="0 0 509.867 509.867" style="enable-background:new 0 0 509.867 509.867;" xml:space="preserve">
<g>
	<g>
		<path d="M272,6.4c-8.533-8.533-23.467-8.533-32,0C220.8,27.733,62.933,219.733,62.933,317.867c0,106.667,85.333,192,192,192
			s192-85.333,192-192C446.933,219.733,289.067,27.733,272,6.4z M297.6,232.533c12.8,0,21.333,8.533,21.333,21.333
			S310.4,275.2,297.6,275.2c-12.8,0-21.333-8.533-21.333-21.333S284.8,232.533,297.6,232.533z M212.267,232.533
			c12.8,0,21.333,8.533,21.333,21.333s-8.533,21.333-21.333,21.333c-12.8,0-21.333-8.533-21.333-21.333
			S199.467,232.533,212.267,232.533z M169.6,317.867c-12.8,0-21.333-8.533-21.333-21.333c0-12.8,8.533-21.333,21.333-21.333
			s21.333,8.533,21.333,21.333C190.933,309.333,182.4,317.867,169.6,317.867z M254.933,403.2c-36.267,0-64-27.733-64-64
			c0-36.267,27.733-64,64-64s64,27.733,64,64C318.933,375.467,291.2,403.2,254.933,403.2z M340.267,317.867
			c-12.8,0-21.333-8.533-21.333-21.333c0-12.8,8.533-21.333,21.333-21.333c12.8,0,21.333,8.533,21.333,21.333
			C361.6,309.333,353.067,317.867,340.267,317.867z"/>
	</g>
</g>
<g>
</g>
<g>
</g>
<g>
</g>
<g>
</g>
<g>
</g>
<g>
</g>
<g>
</g>
<g>
</g>
<g>
</g>
<g>
</g>
<g>
</g>
<g>
</g>
<g>
</g>
<g>
</g>
<g>
</g>
</svg>
