<svg id="Capa_1" enable-background="new 0 0 512.002 512.002" height="512" viewBox="0 0 512.002 512.002" width="512" xmlns="http://www.w3.org/2000/svg"><g><path d="m246.626 480.93c-76.148 76.148-92.037-4.299-151.462-63.724s-139.873-75.314-63.724-151.462c27.478-27.478 75.873-36.289 108.187-46.98 57.226-18.943 99.313-21.291 137.292 16.688s35.624 80.059 16.688 137.292c-10.686 32.306-19.503 80.707-46.981 108.186z" fill="#4a357a"/><path d="m246.626 480.93c-76.148 76.148-92.037-4.299-151.462-63.724l181.755-181.755c37.979 37.979 35.624 80.059 16.688 137.292-10.686 32.307-19.503 80.708-46.981 108.187z" fill="#401f5e"/><ellipse cx="297.742" cy="72.062" fill="#4a357a" rx="79.949" ry="63.192" transform="matrix(.707 -.707 .707 .707 36.251 231.642)"/><ellipse cx="439.573" cy="213.893" fill="#401f5e" rx="79.949" ry="63.192" transform="matrix(.707 -.707 .707 .707 -22.498 373.473)"/><ellipse cx="96.006" cy="100.176" fill="#4a357a" rx="67.055" ry="51.595" transform="matrix(.582 -.813 .813 .582 -41.329 119.966)"/><ellipse cx="412.192" cy="416.363" fill="#401f5e" rx="67.055" ry="51.595" transform="matrix(.813 -.582 .582 .813 -165.306 317.587)"/></g></svg>