<svg id="Capa_1" enable-background="new 0 0 512.116 512.116" height="512" viewBox="0 0 512.116 512.116" width="512" xmlns="http://www.w3.org/2000/svg"><g><path d="m443.757 0h-213.399c-23.479 0-44.227 11.911-56.525 30.006h135.591c54.203 0 98.3 44.098 98.3 98.301v199.349h36.033c37.661 0 68.301-30.64 68.301-68.301v-191.055c0-37.66-30.64-68.3-68.301-68.3z"/><g><path d="m309.424 60.006h-241.066c-37.661 0-68.3 30.64-68.3 68.301v251.06c0 37.661 30.639 68.3 68.3 68.3h74.214l110.484 64.449v-64.449h56.368c37.661 0 68.3-30.64 68.3-68.3v-251.06c0-37.661-30.639-68.301-68.3-68.301zm-29.126 221.587c2.426 6.772 3.723 13.997 3.733 21.41.046 35.107-28.477 63.706-63.583 63.753l-62.767.084c-.028 0-.058 0-.086 0-35.068.001-63.62-28.505-63.667-63.584-.01-7.412 1.268-14.641 3.676-21.419-20.601-4.436-36.102-22.771-36.131-44.682-.017-12.227 4.729-23.728 13.363-32.384 7.901-7.922 18.194-12.582 29.255-13.331-.365-14.107 5.09-27.208 14.452-36.596 9.363-9.388 21.821-14.567 35.079-14.585h.068c13.234 0 25.678 5.145 35.049 14.491.015.015.029.031.044.046.015-.015.029-.031.044-.046 9.363-9.388 21.821-14.567 35.079-14.585h.067c27.34 0 50.087 22.501 49.6 51.05 23.803 1.566 42.707 21.401 42.74 45.6.027 21.912-15.427 40.288-36.015 44.778z"/></g><g><path d="m153.686 209.485h.027c10.827-.014 19.624-8.835 19.609-19.662-.015-10.818-8.821-19.61-19.636-19.61-.01 0-.018 0-.027 0-10.827.014-19.624 8.835-19.609 19.662.015 10.818 8.822 19.61 19.636 19.61z"/><path d="m223.879 209.485c-.01 0-.018 0-.027 0-10.827-.014-19.624-8.835-19.609-19.662.015-10.818 8.821-19.61 19.636-19.61h.027c10.827.014 19.624 8.835 19.609 19.662-.015 10.818-8.821 19.61-19.636 19.61z"/><path d="m254.032 302.996c-.015-11.256-5.614-21.707-14.977-27.957l-4.445-2.967-1.567-5.109c-5.98-19.486-23.693-32.566-44.091-32.566-.02 0-.042 0-.064 0-20.423.027-38.132 13.162-44.066 32.684l-1.554 5.113-4.436 2.979c-9.347 6.275-14.918 16.741-14.903 27.997.025 18.549 15.125 33.622 33.668 33.624h.046l62.767-.084c18.562-.025 33.646-15.149 33.622-33.714z"/><circle cx="107.245" cy="237.048" r="15.77"/><circle cx="270.538" cy="236.83" r="15.77"/></g></g></svg>