<?xml version="1.0" encoding="iso-8859-1"?>
<!-- Generator: Adobe Illustrator 19.0.0, SVG Export Plug-In . SVG Version: 6.00 Build 0)  -->
<svg version="1.1" id="Capa_1" xmlns="http://www.w3.org/2000/svg" xmlns:xlink="http://www.w3.org/1999/xlink" x="0px" y="0px"
	 viewBox="0 0 480 480" style="enable-background:new 0 0 480 480;" xml:space="preserve">
<linearGradient id="SVGID_1_" gradientUnits="userSpaceOnUse" x1="-59.366" y1="587.625" x2="5.605" y2="587.625" gradientTransform="matrix(8 0 0 -8 455 4941)">
	<stop  offset="0" style="stop-color:#BC4E9C"/>
	<stop  offset="1" style="stop-color:#F80759"/>
</linearGradient>
<path style="fill:url(#SVGID_1_);" d="M56,8v464c0,4.418,3.582,8,8,8h352c4.418,0,8-3.582,8-8V8c0-4.418-3.582-8-8-8H64
	C59.582,0,56,3.582,56,8z M72,16h336v448H72V16z"/>
<g>
	
		<linearGradient id="SVGID_2_" gradientUnits="userSpaceOnUse" x1="-59.366" y1="593.625" x2="5.605" y2="593.625" gradientTransform="matrix(8 0 0 -8 455 4941)">
		<stop  offset="0" style="stop-color:#BC4E9C"/>
		<stop  offset="1" style="stop-color:#F80759"/>
	</linearGradient>
	<path style="fill:url(#SVGID_2_);" d="M368,48H112c-4.418,0-8,3.582-8,8v272c0,4.418,3.582,8,8,8h256c4.418,0,8-3.582,8-8V56
		C376,51.582,372.418,48,368,48z M360,320H120V64h240V320z"/>
	
		<linearGradient id="SVGID_3_" gradientUnits="userSpaceOnUse" x1="-59.366" y1="564.625" x2="5.605" y2="564.625" gradientTransform="matrix(8 0 0 -8 455 4941)">
		<stop  offset="0" style="stop-color:#BC4E9C"/>
		<stop  offset="1" style="stop-color:#F80759"/>
	</linearGradient>
	<path style="fill:url(#SVGID_3_);" d="M360,416h-32c-4.418,0-8,3.582-8,8s3.582,8,8,8h32c4.418,0,8-3.582,8-8S364.418,416,360,416z
		"/>
	
		<linearGradient id="SVGID_4_" gradientUnits="userSpaceOnUse" x1="-59.366" y1="564.625" x2="5.605" y2="564.625" gradientTransform="matrix(8 0 0 -8 455 4941)">
		<stop  offset="0" style="stop-color:#BC4E9C"/>
		<stop  offset="1" style="stop-color:#F80759"/>
	</linearGradient>
	<path style="fill:url(#SVGID_4_);" d="M296,416H120c-4.418,0-8,3.582-8,8s3.582,8,8,8h176c4.418,0,8-3.582,8-8S300.418,416,296,416
		z"/>
	
		<linearGradient id="SVGID_5_" gradientUnits="userSpaceOnUse" x1="-59.366" y1="568.625" x2="5.605" y2="568.625" gradientTransform="matrix(8 0 0 -8 455 4941)">
		<stop  offset="0" style="stop-color:#BC4E9C"/>
		<stop  offset="1" style="stop-color:#F80759"/>
	</linearGradient>
	<path style="fill:url(#SVGID_5_);" d="M360,384h-32c-4.418,0-8,3.582-8,8s3.582,8,8,8h32c4.418,0,8-3.582,8-8S364.418,384,360,384z
		"/>
	
		<linearGradient id="SVGID_6_" gradientUnits="userSpaceOnUse" x1="-59.366" y1="568.625" x2="5.605" y2="568.625" gradientTransform="matrix(8 0 0 -8 455 4941)">
		<stop  offset="0" style="stop-color:#BC4E9C"/>
		<stop  offset="1" style="stop-color:#F80759"/>
	</linearGradient>
	<path style="fill:url(#SVGID_6_);" d="M296,384H120c-4.418,0-8,3.582-8,8s3.582,8,8,8h176c4.418,0,8-3.582,8-8S300.418,384,296,384
		z"/>
	
		<linearGradient id="SVGID_7_" gradientUnits="userSpaceOnUse" x1="-59.366" y1="592.6249" x2="5.605" y2="592.6249" gradientTransform="matrix(8 0 0 -8 455 4941)">
		<stop  offset="0" style="stop-color:#BC4E9C"/>
		<stop  offset="1" style="stop-color:#F80759"/>
	</linearGradient>
	<path style="fill:url(#SVGID_7_);" d="M149.472,160.408c-4.197,1.396-6.468,5.931-5.072,10.128
		c1.396,4.197,5.931,6.468,10.128,5.072L168,171.104V200c0,4.418,3.582,8,8,8h8v88c0,4.418,3.582,8,8,8s8-3.582,8-8v-24h16v24
		c0,4.418,3.582,8,8,8s8-3.582,8-8v-24h16v24c0,4.418,3.582,8,8,8s8-3.582,8-8v-24h16v24c0,4.418,3.582,8,8,8s8-3.582,8-8v-88h24
		c4.418,0,8-3.582,8-8v-40h8c4.418,0,8-3.582,8-8s-3.582-8-8-8h-16c-4.418,0-8,3.582-8,8v40h-80v-20.896l13.472,4.488
		c4.197,1.396,8.732-0.875,10.128-5.072c1.396-4.197-0.875-8.732-5.072-10.128L232,154.232v-4.464l18.528-6.176
		c4.197-1.396,6.468-5.931,5.072-10.128c-1.396-4.197-5.931-6.468-10.128-5.072l0,0L232,132.896V104
		c-0.001-4.418-3.583-7.999-8.002-7.998c-2.121,0-4.154,0.843-5.654,2.342L204.688,112h-9.376l-13.656-13.656
		c-3.125-3.124-8.19-3.123-11.314,0.002c-1.499,1.5-2.342,3.534-2.342,5.654v28.896l-13.472-4.488
		c-4.197-1.396-8.732,0.875-10.128,5.072c-1.396,4.197,0.875,8.732,5.072,10.128l18.528,6.16v4.464L149.472,160.408z M280,256h-80
		v-48h80V256z M184,123.312l2.344,2.344c1.5,1.5,3.534,2.344,5.656,2.344h16c2.122,0,4.156-0.844,5.656-2.344l2.344-2.344V192h-32
		V123.312z"/>
	
		<linearGradient id="SVGID_8_" gradientUnits="userSpaceOnUse" x1="-59.366" y1="597.125" x2="5.605" y2="597.125" gradientTransform="matrix(8 0 0 -8 455 4941)">
		<stop  offset="0" style="stop-color:#BC4E9C"/>
		<stop  offset="1" style="stop-color:#F80759"/>
	</linearGradient>
	<path style="fill:url(#SVGID_8_);" d="M200,176c4.418,0,8-3.582,8-8v-8c0-4.418-3.582-8-8-8s-8,3.582-8,8v8
		C192,172.418,195.582,176,200,176z"/>
</g>
<g>
</g>
<g>
</g>
<g>
</g>
<g>
</g>
<g>
</g>
<g>
</g>
<g>
</g>
<g>
</g>
<g>
</g>
<g>
</g>
<g>
</g>
<g>
</g>
<g>
</g>
<g>
</g>
<g>
</g>
</svg>
